<?xml version="1.0" encoding="UTF-8"?>
<svg id="Layer_1" data-name="Layer 1" xmlns="http://www.w3.org/2000/svg" xmlns:xlink="http://www.w3.org/1999/xlink" viewBox="0 0 1080 1080">
  <defs>
    <style>
      .cls-1 {
        fill: url(#linear-gradient-2);
      }

      .cls-2 {
        fill: #fff;
      }

      .cls-3 {
        fill: url(#linear-gradient);
      }
    </style>
    <linearGradient id="linear-gradient" x1="129.76" y1="540" x2="205.51" y2="540" gradientUnits="userSpaceOnUse">
      <stop offset="0" stop-color="#d69729"/>
      <stop offset="0" stop-color="#b46c28"/>
      <stop offset=".32" stop-color="#d48e29"/>
      <stop offset=".68" stop-color="#e6ad23"/>
      <stop offset="1" stop-color="#f8c73d"/>
    </linearGradient>
    <linearGradient id="linear-gradient-2" x1="547.23" y1="539.92" x2="635.27" y2="539.92" xlink:href="#linear-gradient"/>
  </defs>
  <path class="cls-3" d="M205.51,593.97c-5.08,.52-13.28,.78-24.58,.78h-25.2c-9.95,0-16.77-1.79-20.45-5.37-3.68-3.58-5.52-10.5-5.52-20.76v-57.24c0-10.26,1.81-17.19,5.44-20.76,3.63-3.58,10.47-5.37,20.53-5.37h25.2l24.58,.62v19.29h-46.82c-1.45,0-2.44,.23-2.96,.7-.52,.47-.78,1.32-.78,2.57v62.22c0,1.35,.26,2.23,.78,2.64,.52,.42,1.5,.62,2.96,.62h46.82v20.07Z"/>
  <path class="cls-2" d="M245.95,594.13h-25.04v-55.53c0-9.33,1.76-15.48,5.29-18.43,3.52-2.96,10.01-4.43,19.44-4.43l22.86,.47v18.51h-18.66c-1.45,0-2.46,.23-3.03,.7-.57,.47-.86,1.38-.86,2.72v56Z"/>
  <path class="cls-2" d="M349.39,576.09v17.89c-5.29,.52-13.69,.78-25.2,.78h-18.2c-9.54,0-16.33-1.76-20.38-5.29-4.04-3.52-6.07-9.95-6.07-19.29v-31.58c0-9.23,1.94-15.4,5.83-18.51,3.89-3.11,10.6-4.67,20.14-4.67h19.91c9.54,0,16.18,1.53,19.91,4.59,3.73,3.06,5.6,8.79,5.6,17.19v25.51h-47.91v9.96c0,1.35,.26,2.25,.78,2.72,.52,.47,1.5,.7,2.96,.7h42.62Zm-21.93-28.77v-11.67c0-1.25-.29-2.1-.86-2.57-.57-.47-1.58-.7-3.03-.7h-16.8c-1.45,0-2.44,.23-2.96,.7-.52,.47-.78,1.32-.78,2.57v11.67h24.42Z"/>
  <path class="cls-2" d="M437.27,539.53v54.44c-4.67,.52-13.01,.78-25.04,.78h-19.75c-10.27,0-17.29-1.61-21.08-4.82-3.79-3.21-5.68-8.97-5.68-17.26v-7.78c0-7.57,1.94-12.6,5.83-15.09,3.89-2.49,10.97-3.73,21.23-3.73h21v-9.49c0-1.24-.26-2.1-.78-2.57-.52-.47-1.56-.7-3.11-.7h-37.49v-16.95c6.43-.42,14-.62,22.71-.62h15.71c10.47,0,17.5,1.5,21.08,4.51,3.58,3.01,5.37,9.44,5.37,19.29Zm-23.49,36.86v-15.09h-21.15c-1.56,0-2.59,.23-3.11,.7-.52,.47-.78,1.38-.78,2.72v8.4c0,1.24,.28,2.1,.86,2.57,.57,.47,1.58,.7,3.03,.7h21.15Z"/>
  <path class="cls-2" d="M504.3,594.13h-25.2v-88.97h-30.02v-19.44h85.24v19.44h-30.02v88.97Z"/>
  <path class="cls-1" d="M635.27,594.13h-25.2v-46.35h-37.64v46.35h-25.2v-108.41h25.2v42.31h37.64v-42.31h25.2v108.41Z"/>
  <path class="cls-2" d="M734.82,594.13h-79.95v-108.41h79.95v19.44h-54.75v23.02h43.71v19.29h-43.71v26.44h54.75v20.22Z"/>
  <path class="cls-2" d="M820.05,539.53v54.44c-4.67,.52-13.01,.78-25.04,.78h-19.76c-10.27,0-17.29-1.61-21.07-4.82-3.79-3.21-5.68-8.97-5.68-17.26v-7.78c0-7.57,1.94-12.6,5.83-15.09,3.89-2.49,10.97-3.73,21.23-3.73h21v-9.49c0-1.24-.26-2.1-.78-2.57-.52-.47-1.56-.7-3.11-.7h-37.49v-16.95c6.43-.42,14-.62,22.71-.62h15.71c10.47,0,17.5,1.5,21.08,4.51s5.37,9.44,5.37,19.29Zm-23.49,36.86v-15.09h-21.15c-1.55,0-2.59,.23-3.11,.7-.52,.47-.78,1.38-.78,2.72v8.4c0,1.24,.29,2.1,.86,2.57,.57,.47,1.58,.7,3.03,.7h21.15Z"/>
  <path class="cls-2" d="M862.67,594.13h-25.04v-55.53c0-9.33,1.76-15.48,5.29-18.43,3.52-2.96,10-4.43,19.44-4.43l22.87,.47v18.51h-18.67c-1.45,0-2.46,.23-3.03,.7-.57,.47-.86,1.38-.86,2.72v56Z"/>
  <path class="cls-2" d="M950.24,575.31v18.67c-4.04,.41-11.35,.62-21.93,.62-9.85,0-16.56-1.61-20.14-4.82-3.58-3.21-5.37-9.38-5.37-18.51v-37.95h-11.82v-17.11h11.82v-19.91h25.04v19.91h20.84v17.11h-20.84v38.73c0,1.35,.26,2.23,.78,2.64,.52,.42,1.55,.62,3.11,.62h18.51Z"/>
</svg>